<svg width="139" height="58" viewBox="0 0 139 58" fill="none" xmlns="http://www.w3.org/2000/svg">
<path d="M3.64645 56.3536C3.84171 56.5488 4.15829 56.5488 4.35355 56.3536L7.53553 53.1716C7.73079 52.9763 7.73079 52.6597 7.53553 52.4645C7.34027 52.2692 7.02369 52.2692 6.82843 52.4645L4 55.2929L1.17157 52.4645C0.97631 52.2692 0.659727 52.2692 0.464465 52.4645C0.269203 52.6597 0.269203 52.9763 0.464465 53.1716L3.64645 56.3536ZM3.5 40L3.5 56L4.5 56L4.5 40L3.5 40Z" fill="#585858"/>
<path d="M38.6464 56.3536C38.8417 56.5488 39.1583 56.5488 39.3536 56.3536L42.5355 53.1716C42.7308 52.9763 42.7308 52.6597 42.5355 52.4645C42.3403 52.2692 42.0237 52.2692 41.8284 52.4645L39 55.2929L36.1716 52.4645C35.9763 52.2692 35.6597 52.2692 35.4645 52.4645C35.2692 52.6597 35.2692 52.9763 35.4645 53.1716L38.6464 56.3536ZM38.5 40L38.5 56L39.5 56L39.5 40L38.5 40Z" fill="#585858"/>
<path d="M104.646 57.3536C104.842 57.5488 105.158 57.5488 105.354 57.3536L108.536 54.1716C108.731 53.9763 108.731 53.6597 108.536 53.4645C108.34 53.2692 108.024 53.2692 107.828 53.4645L105 56.2929L102.172 53.4645C101.976 53.2692 101.66 53.2692 101.464 53.4645C101.269 53.6597 101.269 53.9763 101.464 54.1716L104.646 57.3536ZM104.5 41L104.5 57L105.5 57L105.5 41L104.5 41Z" fill="#585858"/>
<path d="M73.6464 57.3536C73.8417 57.5488 74.1583 57.5488 74.3536 57.3536L77.5355 54.1716C77.7308 53.9763 77.7308 53.6597 77.5355 53.4645C77.3403 53.2692 77.0237 53.2692 76.8284 53.4645L74 56.2929L71.1716 53.4645C70.9763 53.2692 70.6597 53.2692 70.4645 53.4645C70.2692 53.6597 70.2692 53.9763 70.4645 54.1716L73.6464 57.3536ZM73.5 41L73.5 57L74.5 57L74.5 41L73.5 41Z" fill="#585858"/>
<path d="M134.646 57.3536C134.842 57.5488 135.158 57.5488 135.354 57.3536L138.536 54.1716C138.731 53.9763 138.731 53.6597 138.536 53.4645C138.34 53.2692 138.024 53.2692 137.828 53.4645L135 56.2929L132.172 53.4645C131.976 53.2692 131.66 53.2692 131.464 53.4645C131.269 53.6597 131.269 53.9763 131.464 54.1716L134.646 57.3536ZM134.5 41L134.5 57L135.5 57L135.5 41L134.5 41Z" fill="#585858"/>
<path d="M10.96 23.012H12.1C12.036 22.556 11.9 22.156 11.692 21.812C11.484 21.46 11.224 21.168 10.912 20.936C10.6 20.704 10.244 20.528 9.844 20.408C9.444 20.288 9.02 20.228 8.572 20.228C7.916 20.228 7.332 20.348 6.82 20.588C6.316 20.82 5.892 21.14 5.548 21.548C5.212 21.956 4.956 22.436 4.78 22.988C4.604 23.532 4.516 24.116 4.516 24.74C4.516 25.364 4.596 25.948 4.756 26.492C4.924 27.036 5.172 27.508 5.5 27.908C5.828 28.308 6.24 28.624 6.736 28.856C7.232 29.08 7.812 29.192 8.476 29.192C9.572 29.192 10.436 28.892 11.068 28.292C11.7 27.692 12.072 26.852 12.184 25.772H11.044C11.02 26.124 10.948 26.452 10.828 26.756C10.708 27.06 10.54 27.324 10.324 27.548C10.116 27.764 9.864 27.936 9.568 28.064C9.28 28.184 8.948 28.244 8.572 28.244C8.06 28.244 7.62 28.148 7.252 27.956C6.884 27.764 6.58 27.508 6.34 27.188C6.108 26.86 5.936 26.48 5.824 26.048C5.712 25.608 5.656 25.144 5.656 24.656C5.656 24.208 5.712 23.776 5.824 23.36C5.936 22.944 6.108 22.576 6.34 22.256C6.58 21.928 6.88 21.668 7.24 21.476C7.608 21.284 8.048 21.188 8.56 21.188C9.16 21.188 9.676 21.34 10.108 21.644C10.548 21.948 10.832 22.404 10.96 23.012ZM14.4122 25.904C14.4122 25.528 14.4602 25.196 14.5562 24.908C14.6602 24.612 14.8002 24.364 14.9762 24.164C15.1522 23.964 15.3562 23.812 15.5882 23.708C15.8282 23.604 16.0802 23.552 16.3442 23.552C16.6082 23.552 16.8562 23.604 17.0882 23.708C17.3282 23.812 17.5362 23.964 17.7122 24.164C17.8882 24.364 18.0242 24.612 18.1202 24.908C18.2242 25.196 18.2762 25.528 18.2762 25.904C18.2762 26.28 18.2242 26.616 18.1202 26.912C18.0242 27.2 17.8882 27.444 17.7122 27.644C17.5362 27.836 17.3282 27.984 17.0882 28.088C16.8562 28.192 16.6082 28.244 16.3442 28.244C16.0802 28.244 15.8282 28.192 15.5882 28.088C15.3562 27.984 15.1522 27.836 14.9762 27.644C14.8002 27.444 14.6602 27.2 14.5562 26.912C14.4602 26.616 14.4122 26.28 14.4122 25.904ZM13.3322 25.904C13.3322 26.36 13.3962 26.784 13.5242 27.176C13.6522 27.568 13.8442 27.912 14.1002 28.208C14.3562 28.496 14.6722 28.724 15.0482 28.892C15.4242 29.052 15.8562 29.132 16.3442 29.132C16.8402 29.132 17.2722 29.052 17.6402 28.892C18.0162 28.724 18.3322 28.496 18.5882 28.208C18.8442 27.912 19.0362 27.568 19.1642 27.176C19.2922 26.784 19.3562 26.36 19.3562 25.904C19.3562 25.448 19.2922 25.024 19.1642 24.632C19.0362 24.232 18.8442 23.888 18.5882 23.6C18.3322 23.304 18.0162 23.072 17.6402 22.904C17.2722 22.736 16.8402 22.652 16.3442 22.652C15.8562 22.652 15.4242 22.736 15.0482 22.904C14.6722 23.072 14.3562 23.304 14.1002 23.6C13.8442 23.888 13.6522 24.232 13.5242 24.632C13.3962 25.024 13.3322 25.448 13.3322 25.904ZM20.8348 22.796V31.364H21.8548V28.172H21.8788C21.9908 28.356 22.1268 28.512 22.2868 28.64C22.4548 28.76 22.6308 28.856 22.8148 28.928C22.9988 29 23.1828 29.052 23.3668 29.084C23.5588 29.116 23.7308 29.132 23.8828 29.132C24.3548 29.132 24.7668 29.048 25.1188 28.88C25.4788 28.712 25.7748 28.484 26.0068 28.196C26.2468 27.9 26.4228 27.556 26.5348 27.164C26.6548 26.772 26.7148 26.356 26.7148 25.916C26.7148 25.476 26.6548 25.06 26.5348 24.668C26.4148 24.276 26.2348 23.932 25.9948 23.636C25.7628 23.332 25.4668 23.092 25.1068 22.916C24.7548 22.74 24.3388 22.652 23.8588 22.652C23.4268 22.652 23.0308 22.732 22.6708 22.892C22.3108 23.044 22.0468 23.292 21.8788 23.636H21.8548V22.796H20.8348ZM25.6348 25.844C25.6348 26.148 25.6028 26.444 25.5388 26.732C25.4748 27.02 25.3708 27.276 25.2268 27.5C25.0828 27.724 24.8908 27.904 24.6508 28.04C24.4188 28.176 24.1268 28.244 23.7748 28.244C23.4228 28.244 23.1228 28.18 22.8748 28.052C22.6268 27.916 22.4228 27.74 22.2628 27.524C22.1108 27.308 21.9988 27.06 21.9268 26.78C21.8548 26.492 21.8188 26.196 21.8188 25.892C21.8188 25.604 21.8508 25.32 21.9148 25.04C21.9868 24.76 22.0988 24.512 22.2508 24.296C22.4028 24.072 22.5988 23.892 22.8388 23.756C23.0788 23.62 23.3708 23.552 23.7148 23.552C24.0428 23.552 24.3268 23.616 24.5668 23.744C24.8148 23.872 25.0148 24.044 25.1668 24.26C25.3268 24.476 25.4428 24.724 25.5148 25.004C25.5948 25.276 25.6348 25.556 25.6348 25.844ZM30.5881 29.828C30.4681 30.132 30.3481 30.388 30.2281 30.596C30.1161 30.804 29.9881 30.972 29.8441 31.1C29.7081 31.236 29.5521 31.332 29.3761 31.388C29.2081 31.452 29.0121 31.484 28.7881 31.484C28.6681 31.484 28.5481 31.476 28.4281 31.46C28.3081 31.444 28.1921 31.416 28.0801 31.376V30.44C28.1681 30.48 28.2681 30.512 28.3801 30.536C28.5001 30.568 28.6001 30.584 28.6801 30.584C28.8881 30.584 29.0601 30.532 29.1961 30.428C29.3401 30.332 29.4481 30.192 29.5201 30.008L29.9401 28.964L27.4801 22.796H28.6321L30.4441 27.872H30.4681L32.2081 22.796H33.2881L30.5881 29.828ZM38.0079 20.432V29H39.0279V28.172H39.0519C39.1639 28.356 39.2999 28.512 39.4599 28.64C39.6279 28.76 39.8039 28.856 39.9879 28.928C40.1719 29 40.3559 29.052 40.5399 29.084C40.7319 29.116 40.9039 29.132 41.0559 29.132C41.5279 29.132 41.9399 29.048 42.2919 28.88C42.6519 28.712 42.9479 28.484 43.1799 28.196C43.4199 27.9 43.5959 27.556 43.7079 27.164C43.8279 26.772 43.8879 26.356 43.8879 25.916C43.8879 25.476 43.8279 25.06 43.7079 24.668C43.5879 24.276 43.4079 23.932 43.1679 23.636C42.9359 23.332 42.6399 23.092 42.2799 22.916C41.9279 22.74 41.5119 22.652 41.0319 22.652C40.5999 22.652 40.2039 22.732 39.8439 22.892C39.4839 23.044 39.2199 23.292 39.0519 23.636H39.0279V20.432H38.0079ZM42.8079 25.844C42.8079 26.148 42.7759 26.444 42.7119 26.732C42.6479 27.02 42.5439 27.276 42.3999 27.5C42.2559 27.724 42.0639 27.904 41.8239 28.04C41.5919 28.176 41.2999 28.244 40.9479 28.244C40.5959 28.244 40.2959 28.18 40.0479 28.052C39.7999 27.916 39.5959 27.74 39.4359 27.524C39.2839 27.308 39.1719 27.06 39.0999 26.78C39.0279 26.492 38.9919 26.196 38.9919 25.892C38.9919 25.604 39.0239 25.32 39.0879 25.04C39.1599 24.76 39.2719 24.512 39.4239 24.296C39.5759 24.072 39.7719 23.892 40.0119 23.756C40.2519 23.62 40.5439 23.552 40.8879 23.552C41.2159 23.552 41.4999 23.616 41.7399 23.744C41.9879 23.872 42.1879 24.044 42.3399 24.26C42.4999 24.476 42.6159 24.724 42.6879 25.004C42.7679 25.276 42.8079 25.556 42.8079 25.844ZM50.8212 28.976C50.6452 29.08 50.4012 29.132 50.0892 29.132C49.8252 29.132 49.6132 29.06 49.4532 28.916C49.3012 28.764 49.2252 28.52 49.2252 28.184C48.9452 28.52 48.6172 28.764 48.2412 28.916C47.8732 29.06 47.4732 29.132 47.0412 29.132C46.7612 29.132 46.4932 29.1 46.2372 29.036C45.9892 28.972 45.7732 28.872 45.5892 28.736C45.4052 28.6 45.2572 28.424 45.1452 28.208C45.0412 27.984 44.9892 27.716 44.9892 27.404C44.9892 27.052 45.0492 26.764 45.1692 26.54C45.2892 26.316 45.4452 26.136 45.6372 26C45.8372 25.856 46.0612 25.748 46.3092 25.676C46.5652 25.604 46.8252 25.544 47.0892 25.496C47.3692 25.44 47.6332 25.4 47.8812 25.376C48.1372 25.344 48.3612 25.304 48.5532 25.256C48.7452 25.2 48.8972 25.124 49.0092 25.028C49.1212 24.924 49.1772 24.776 49.1772 24.584C49.1772 24.36 49.1332 24.18 49.0452 24.044C48.9652 23.908 48.8572 23.804 48.7212 23.732C48.5932 23.66 48.4452 23.612 48.2772 23.588C48.1172 23.564 47.9572 23.552 47.7972 23.552C47.3652 23.552 47.0052 23.636 46.7172 23.804C46.4292 23.964 46.2732 24.272 46.2492 24.728H45.2292C45.2452 24.344 45.3252 24.02 45.4692 23.756C45.6132 23.492 45.8052 23.28 46.0452 23.12C46.2852 22.952 46.5572 22.832 46.8612 22.76C47.1732 22.688 47.5052 22.652 47.8572 22.652C48.1372 22.652 48.4132 22.672 48.6852 22.712C48.9652 22.752 49.2172 22.836 49.4412 22.964C49.6652 23.084 49.8452 23.256 49.9812 23.48C50.1172 23.704 50.1852 23.996 50.1852 24.356V27.548C50.1852 27.788 50.1972 27.964 50.2212 28.076C50.2532 28.188 50.3492 28.244 50.5092 28.244C50.5972 28.244 50.7012 28.224 50.8212 28.184V28.976ZM49.1652 25.796C49.0372 25.892 48.8692 25.964 48.6612 26.012C48.4532 26.052 48.2332 26.088 48.0012 26.12C47.7772 26.144 47.5492 26.176 47.3172 26.216C47.0852 26.248 46.8772 26.304 46.6932 26.384C46.5092 26.464 46.3572 26.58 46.2372 26.732C46.1252 26.876 46.0692 27.076 46.0692 27.332C46.0692 27.5 46.1012 27.644 46.1652 27.764C46.2372 27.876 46.3252 27.968 46.4292 28.04C46.5412 28.112 46.6692 28.164 46.8132 28.196C46.9572 28.228 47.1092 28.244 47.2692 28.244C47.6052 28.244 47.8932 28.2 48.1332 28.112C48.3732 28.016 48.5692 27.9 48.7212 27.764C48.8732 27.62 48.9852 27.468 49.0572 27.308C49.1292 27.14 49.1652 26.984 49.1652 26.84V25.796ZM56.2225 24.788H57.2785C57.2385 24.42 57.1425 24.104 56.9905 23.84C56.8385 23.568 56.6425 23.344 56.4025 23.168C56.1705 22.992 55.8985 22.864 55.5865 22.784C55.2825 22.696 54.9545 22.652 54.6025 22.652C54.1145 22.652 53.6865 22.74 53.3185 22.916C52.9505 23.084 52.6425 23.32 52.3945 23.624C52.1545 23.92 51.9745 24.272 51.8545 24.68C51.7345 25.08 51.6745 25.512 51.6745 25.976C51.6745 26.44 51.7345 26.868 51.8545 27.26C51.9825 27.644 52.1665 27.976 52.4065 28.256C52.6545 28.536 52.9585 28.752 53.3185 28.904C53.6865 29.056 54.1065 29.132 54.5785 29.132C55.3705 29.132 55.9945 28.924 56.4505 28.508C56.9145 28.092 57.2025 27.5 57.3145 26.732H56.2705C56.2065 27.212 56.0305 27.584 55.7425 27.848C55.4625 28.112 55.0705 28.244 54.5665 28.244C54.2465 28.244 53.9705 28.18 53.7385 28.052C53.5065 27.924 53.3185 27.756 53.1745 27.548C53.0305 27.332 52.9225 27.088 52.8505 26.816C52.7865 26.544 52.7545 26.264 52.7545 25.976C52.7545 25.664 52.7865 25.364 52.8505 25.076C52.9145 24.78 53.0185 24.52 53.1625 24.296C53.3145 24.072 53.5145 23.892 53.7625 23.756C54.0105 23.62 54.3185 23.552 54.6865 23.552C55.1185 23.552 55.4625 23.66 55.7185 23.876C55.9745 24.092 56.1425 24.396 56.2225 24.788ZM58.7558 20.432V29H59.7758V26.648L60.7358 25.76L62.8598 29H64.1558L61.5158 25.052L63.9758 22.796H62.6078L59.7758 25.508V20.432H58.7558ZM70.1543 22.796V20.936H69.1343V22.796H68.0783V23.696H69.1343V27.644C69.1343 27.932 69.1623 28.164 69.2183 28.34C69.2743 28.516 69.3583 28.652 69.4703 28.748C69.5903 28.844 69.7423 28.912 69.9263 28.952C70.1183 28.984 70.3463 29 70.6103 29H71.3903V28.1H70.9223C70.7623 28.1 70.6303 28.096 70.5263 28.088C70.4303 28.072 70.3543 28.044 70.2983 28.004C70.2423 27.964 70.2023 27.908 70.1783 27.836C70.1623 27.764 70.1543 27.668 70.1543 27.548V23.696H71.3903V22.796H70.1543ZM73.5075 25.904C73.5075 25.528 73.5555 25.196 73.6515 24.908C73.7555 24.612 73.8955 24.364 74.0715 24.164C74.2475 23.964 74.4515 23.812 74.6835 23.708C74.9235 23.604 75.1755 23.552 75.4395 23.552C75.7035 23.552 75.9515 23.604 76.1835 23.708C76.4235 23.812 76.6315 23.964 76.8075 24.164C76.9835 24.364 77.1195 24.612 77.2155 24.908C77.3195 25.196 77.3715 25.528 77.3715 25.904C77.3715 26.28 77.3195 26.616 77.2155 26.912C77.1195 27.2 76.9835 27.444 76.8075 27.644C76.6315 27.836 76.4235 27.984 76.1835 28.088C75.9515 28.192 75.7035 28.244 75.4395 28.244C75.1755 28.244 74.9235 28.192 74.6835 28.088C74.4515 27.984 74.2475 27.836 74.0715 27.644C73.8955 27.444 73.7555 27.2 73.6515 26.912C73.5555 26.616 73.5075 26.28 73.5075 25.904ZM72.4275 25.904C72.4275 26.36 72.4915 26.784 72.6195 27.176C72.7475 27.568 72.9395 27.912 73.1955 28.208C73.4515 28.496 73.7675 28.724 74.1435 28.892C74.5195 29.052 74.9515 29.132 75.4395 29.132C75.9355 29.132 76.3675 29.052 76.7355 28.892C77.1115 28.724 77.4275 28.496 77.6835 28.208C77.9395 27.912 78.1315 27.568 78.2595 27.176C78.3875 26.784 78.4515 26.36 78.4515 25.904C78.4515 25.448 78.3875 25.024 78.2595 24.632C78.1315 24.232 77.9395 23.888 77.6835 23.6C77.4275 23.304 77.1115 23.072 76.7355 22.904C76.3675 22.736 75.9355 22.652 75.4395 22.652C74.9515 22.652 74.5195 22.736 74.1435 22.904C73.7675 23.072 73.4515 23.304 73.1955 23.6C72.9395 23.888 72.7475 24.232 72.6195 24.632C72.4915 25.024 72.4275 25.448 72.4275 25.904ZM84.0979 27.044H83.0779C83.0939 27.428 83.1739 27.756 83.3179 28.028C83.4619 28.292 83.6539 28.508 83.8939 28.676C84.1339 28.836 84.4099 28.952 84.7219 29.024C85.0339 29.096 85.3619 29.132 85.7059 29.132C86.0179 29.132 86.3299 29.1 86.6419 29.036C86.9619 28.98 87.2459 28.876 87.4939 28.724C87.7499 28.572 87.9539 28.372 88.1059 28.124C88.2659 27.876 88.3459 27.564 88.3459 27.188C88.3459 26.892 88.2859 26.644 88.1659 26.444C88.0539 26.244 87.9019 26.08 87.7099 25.952C87.5259 25.816 87.3099 25.708 87.0619 25.628C86.8219 25.548 86.5739 25.48 86.3179 25.424C86.0779 25.368 85.8379 25.316 85.5979 25.268C85.3579 25.212 85.1419 25.148 84.9499 25.076C84.7579 24.996 84.5979 24.9 84.4699 24.788C84.3499 24.668 84.2899 24.52 84.2899 24.344C84.2899 24.184 84.3299 24.056 84.4099 23.96C84.4899 23.856 84.5939 23.776 84.7219 23.72C84.8499 23.656 84.9899 23.612 85.1419 23.588C85.3019 23.564 85.4579 23.552 85.6099 23.552C85.7779 23.552 85.9419 23.572 86.1019 23.612C86.2699 23.644 86.4219 23.7 86.5579 23.78C86.6939 23.86 86.8059 23.968 86.8939 24.104C86.9819 24.232 87.0339 24.396 87.0499 24.596H88.0699C88.0459 24.22 87.9659 23.908 87.8299 23.66C87.6939 23.404 87.5099 23.204 87.2779 23.06C87.0539 22.908 86.7939 22.804 86.4979 22.748C86.2019 22.684 85.8779 22.652 85.5259 22.652C85.2539 22.652 84.9779 22.688 84.6979 22.76C84.4259 22.824 84.1779 22.928 83.9539 23.072C83.7379 23.208 83.5579 23.388 83.4139 23.612C83.2779 23.836 83.2099 24.104 83.2099 24.416C83.2099 24.816 83.3099 25.128 83.5099 25.352C83.7099 25.576 83.9579 25.752 84.2539 25.88C84.5579 26 84.8859 26.096 85.2379 26.168C85.5899 26.232 85.9139 26.308 86.2099 26.396C86.5139 26.476 86.7659 26.584 86.9659 26.72C87.1659 26.856 87.2659 27.056 87.2659 27.32C87.2659 27.512 87.2179 27.672 87.1219 27.8C87.0259 27.92 86.9019 28.012 86.7499 28.076C86.6059 28.14 86.4459 28.184 86.2699 28.208C86.0939 28.232 85.9259 28.244 85.7659 28.244C85.5579 28.244 85.3539 28.224 85.1539 28.184C84.9619 28.144 84.7859 28.08 84.6259 27.992C84.4739 27.896 84.3499 27.772 84.2539 27.62C84.1579 27.46 84.1059 27.268 84.0979 27.044ZM95.2099 28.976C95.0339 29.08 94.7899 29.132 94.4779 29.132C94.2139 29.132 94.0019 29.06 93.8419 28.916C93.6899 28.764 93.6139 28.52 93.6139 28.184C93.3339 28.52 93.0059 28.764 92.6299 28.916C92.2619 29.06 91.8619 29.132 91.4299 29.132C91.1499 29.132 90.8819 29.1 90.6259 29.036C90.3779 28.972 90.1619 28.872 89.9779 28.736C89.7939 28.6 89.6459 28.424 89.5339 28.208C89.4299 27.984 89.3779 27.716 89.3779 27.404C89.3779 27.052 89.4379 26.764 89.5579 26.54C89.6779 26.316 89.8339 26.136 90.0259 26C90.2259 25.856 90.4499 25.748 90.6979 25.676C90.9539 25.604 91.2139 25.544 91.4779 25.496C91.7579 25.44 92.0219 25.4 92.2699 25.376C92.5259 25.344 92.7499 25.304 92.9419 25.256C93.1339 25.2 93.2859 25.124 93.3979 25.028C93.5099 24.924 93.5659 24.776 93.5659 24.584C93.5659 24.36 93.5219 24.18 93.4339 24.044C93.3539 23.908 93.2459 23.804 93.1099 23.732C92.9819 23.66 92.8339 23.612 92.6659 23.588C92.5059 23.564 92.3459 23.552 92.1859 23.552C91.7539 23.552 91.3939 23.636 91.1059 23.804C90.8179 23.964 90.6619 24.272 90.6379 24.728H89.6179C89.6339 24.344 89.7139 24.02 89.8579 23.756C90.0019 23.492 90.1939 23.28 90.4339 23.12C90.6739 22.952 90.9459 22.832 91.2499 22.76C91.5619 22.688 91.8939 22.652 92.2459 22.652C92.5259 22.652 92.8019 22.672 93.0739 22.712C93.3539 22.752 93.6059 22.836 93.8299 22.964C94.0539 23.084 94.2339 23.256 94.3699 23.48C94.5059 23.704 94.5739 23.996 94.5739 24.356V27.548C94.5739 27.788 94.5859 27.964 94.6099 28.076C94.6419 28.188 94.7379 28.244 94.8979 28.244C94.9859 28.244 95.0899 28.224 95.2099 28.184V28.976ZM93.5539 25.796C93.4259 25.892 93.2579 25.964 93.0499 26.012C92.8419 26.052 92.6219 26.088 92.3899 26.12C92.1659 26.144 91.9379 26.176 91.7059 26.216C91.4739 26.248 91.2659 26.304 91.0819 26.384C90.8979 26.464 90.7459 26.58 90.6259 26.732C90.5139 26.876 90.4579 27.076 90.4579 27.332C90.4579 27.5 90.4899 27.644 90.5539 27.764C90.6259 27.876 90.7139 27.968 90.8179 28.04C90.9299 28.112 91.0579 28.164 91.2019 28.196C91.3459 28.228 91.4979 28.244 91.6579 28.244C91.9939 28.244 92.2819 28.2 92.5219 28.112C92.7619 28.016 92.9579 27.9 93.1099 27.764C93.2619 27.62 93.3739 27.468 93.4459 27.308C93.5179 27.14 93.5539 26.984 93.5539 26.84V25.796ZM96.4592 20.432V29H97.4792V20.432H96.4592ZM103.607 25.304H100.043C100.059 25.064 100.111 24.84 100.199 24.632C100.287 24.416 100.407 24.228 100.559 24.068C100.711 23.908 100.891 23.784 101.099 23.696C101.315 23.6 101.555 23.552 101.819 23.552C102.075 23.552 102.307 23.6 102.515 23.696C102.731 23.784 102.915 23.908 103.067 24.068C103.227 24.22 103.351 24.404 103.439 24.62C103.535 24.836 103.591 25.064 103.607 25.304ZM104.591 27.032H103.583C103.495 27.44 103.311 27.744 103.031 27.944C102.759 28.144 102.407 28.244 101.975 28.244C101.639 28.244 101.347 28.188 101.099 28.076C100.851 27.964 100.647 27.816 100.487 27.632C100.327 27.44 100.211 27.224 100.139 26.984C100.067 26.736 100.035 26.476 100.043 26.204H104.687C104.703 25.828 104.667 25.432 104.579 25.016C104.499 24.6 104.347 24.216 104.123 23.864C103.907 23.512 103.615 23.224 103.247 23C102.887 22.768 102.431 22.652 101.879 22.652C101.455 22.652 101.063 22.732 100.703 22.892C100.351 23.052 100.043 23.276 99.7794 23.564C99.5234 23.852 99.3234 24.192 99.1794 24.584C99.0354 24.976 98.9634 25.408 98.9634 25.88C98.9794 26.352 99.0474 26.788 99.1674 27.188C99.2954 27.588 99.4834 27.932 99.7314 28.22C99.9794 28.508 100.283 28.732 100.643 28.892C101.011 29.052 101.443 29.132 101.939 29.132C102.643 29.132 103.227 28.956 103.691 28.604C104.155 28.252 104.455 27.728 104.591 27.032ZM109.601 22.796V31.364H110.621V28.172H110.645C110.757 28.356 110.893 28.512 111.053 28.64C111.221 28.76 111.397 28.856 111.581 28.928C111.765 29 111.949 29.052 112.133 29.084C112.325 29.116 112.497 29.132 112.649 29.132C113.121 29.132 113.533 29.048 113.885 28.88C114.245 28.712 114.541 28.484 114.773 28.196C115.013 27.9 115.189 27.556 115.301 27.164C115.421 26.772 115.481 26.356 115.481 25.916C115.481 25.476 115.421 25.06 115.301 24.668C115.181 24.276 115.001 23.932 114.761 23.636C114.529 23.332 114.233 23.092 113.873 22.916C113.521 22.74 113.105 22.652 112.625 22.652C112.193 22.652 111.797 22.732 111.437 22.892C111.077 23.044 110.813 23.292 110.645 23.636H110.621V22.796H109.601ZM114.401 25.844C114.401 26.148 114.369 26.444 114.305 26.732C114.241 27.02 114.137 27.276 113.993 27.5C113.849 27.724 113.657 27.904 113.417 28.04C113.185 28.176 112.893 28.244 112.541 28.244C112.189 28.244 111.889 28.18 111.641 28.052C111.393 27.916 111.189 27.74 111.029 27.524C110.877 27.308 110.765 27.06 110.693 26.78C110.621 26.492 110.585 26.196 110.585 25.892C110.585 25.604 110.617 25.32 110.681 25.04C110.753 24.76 110.865 24.512 111.017 24.296C111.169 24.072 111.365 23.892 111.605 23.756C111.845 23.62 112.137 23.552 112.481 23.552C112.809 23.552 113.093 23.616 113.333 23.744C113.581 23.872 113.781 24.044 113.933 24.26C114.093 24.476 114.209 24.724 114.281 25.004C114.361 25.276 114.401 25.556 114.401 25.844ZM122.414 28.976C122.238 29.08 121.994 29.132 121.682 29.132C121.418 29.132 121.206 29.06 121.046 28.916C120.894 28.764 120.818 28.52 120.818 28.184C120.538 28.52 120.21 28.764 119.834 28.916C119.466 29.06 119.066 29.132 118.634 29.132C118.354 29.132 118.086 29.1 117.83 29.036C117.582 28.972 117.366 28.872 117.182 28.736C116.998 28.6 116.85 28.424 116.738 28.208C116.634 27.984 116.582 27.716 116.582 27.404C116.582 27.052 116.642 26.764 116.762 26.54C116.882 26.316 117.038 26.136 117.23 26C117.43 25.856 117.654 25.748 117.902 25.676C118.158 25.604 118.418 25.544 118.682 25.496C118.962 25.44 119.226 25.4 119.474 25.376C119.73 25.344 119.954 25.304 120.146 25.256C120.338 25.2 120.49 25.124 120.602 25.028C120.714 24.924 120.77 24.776 120.77 24.584C120.77 24.36 120.726 24.18 120.638 24.044C120.558 23.908 120.45 23.804 120.314 23.732C120.186 23.66 120.038 23.612 119.87 23.588C119.71 23.564 119.55 23.552 119.39 23.552C118.958 23.552 118.598 23.636 118.31 23.804C118.022 23.964 117.866 24.272 117.842 24.728H116.822C116.838 24.344 116.918 24.02 117.062 23.756C117.206 23.492 117.398 23.28 117.638 23.12C117.878 22.952 118.15 22.832 118.454 22.76C118.766 22.688 119.098 22.652 119.45 22.652C119.73 22.652 120.006 22.672 120.278 22.712C120.558 22.752 120.81 22.836 121.034 22.964C121.258 23.084 121.438 23.256 121.574 23.48C121.71 23.704 121.778 23.996 121.778 24.356V27.548C121.778 27.788 121.79 27.964 121.814 28.076C121.846 28.188 121.942 28.244 122.102 28.244C122.19 28.244 122.294 28.224 122.414 28.184V28.976ZM120.758 25.796C120.63 25.892 120.462 25.964 120.254 26.012C120.046 26.052 119.826 26.088 119.594 26.12C119.37 26.144 119.142 26.176 118.91 26.216C118.678 26.248 118.47 26.304 118.286 26.384C118.102 26.464 117.95 26.58 117.83 26.732C117.718 26.876 117.662 27.076 117.662 27.332C117.662 27.5 117.694 27.644 117.758 27.764C117.83 27.876 117.918 27.968 118.022 28.04C118.134 28.112 118.262 28.164 118.406 28.196C118.55 28.228 118.702 28.244 118.862 28.244C119.198 28.244 119.486 28.2 119.726 28.112C119.966 28.016 120.162 27.9 120.314 27.764C120.466 27.62 120.578 27.468 120.65 27.308C120.722 27.14 120.758 26.984 120.758 26.84V25.796ZM128.955 28.472V22.796H127.995V23.684H127.983C127.799 23.34 127.543 23.084 127.215 22.916C126.887 22.74 126.527 22.652 126.135 22.652C125.599 22.652 125.147 22.756 124.779 22.964C124.411 23.164 124.115 23.424 123.891 23.744C123.667 24.056 123.507 24.408 123.411 24.8C123.315 25.184 123.267 25.56 123.267 25.928C123.267 26.352 123.323 26.756 123.435 27.14C123.555 27.516 123.731 27.848 123.963 28.136C124.195 28.416 124.483 28.64 124.827 28.808C125.171 28.976 125.575 29.06 126.039 29.06C126.439 29.06 126.815 28.972 127.167 28.796C127.527 28.612 127.795 28.328 127.971 27.944H127.995V28.352C127.995 28.696 127.959 29.012 127.887 29.3C127.823 29.588 127.715 29.832 127.563 30.032C127.411 30.24 127.219 30.4 126.987 30.512C126.755 30.632 126.471 30.692 126.135 30.692C125.967 30.692 125.791 30.672 125.607 30.632C125.423 30.6 125.251 30.544 125.091 30.464C124.939 30.384 124.807 30.28 124.695 30.152C124.591 30.024 124.535 29.868 124.527 29.684H123.507C123.523 30.02 123.611 30.304 123.771 30.536C123.931 30.768 124.131 30.956 124.371 31.1C124.619 31.244 124.891 31.348 125.187 31.412C125.491 31.476 125.787 31.508 126.075 31.508C127.067 31.508 127.795 31.256 128.259 30.752C128.723 30.248 128.955 29.488 128.955 28.472ZM126.099 28.172C125.763 28.172 125.483 28.104 125.259 27.968C125.035 27.824 124.855 27.64 124.719 27.416C124.583 27.184 124.487 26.928 124.431 26.648C124.375 26.368 124.347 26.088 124.347 25.808C124.347 25.512 124.379 25.228 124.443 24.956C124.515 24.684 124.623 24.444 124.767 24.236C124.919 24.028 125.111 23.864 125.343 23.744C125.575 23.616 125.855 23.552 126.183 23.552C126.503 23.552 126.775 23.616 126.999 23.744C127.223 23.872 127.403 24.044 127.539 24.26C127.683 24.468 127.787 24.704 127.851 24.968C127.915 25.232 127.947 25.5 127.947 25.772C127.947 26.06 127.911 26.348 127.839 26.636C127.775 26.924 127.671 27.184 127.527 27.416C127.383 27.64 127.191 27.824 126.951 27.968C126.719 28.104 126.435 28.172 126.099 28.172ZM135.042 25.304H131.478C131.494 25.064 131.546 24.84 131.634 24.632C131.722 24.416 131.842 24.228 131.994 24.068C132.146 23.908 132.326 23.784 132.534 23.696C132.75 23.6 132.99 23.552 133.254 23.552C133.51 23.552 133.742 23.6 133.95 23.696C134.166 23.784 134.35 23.908 134.502 24.068C134.662 24.22 134.786 24.404 134.874 24.62C134.97 24.836 135.026 25.064 135.042 25.304ZM136.026 27.032H135.018C134.93 27.44 134.746 27.744 134.466 27.944C134.194 28.144 133.842 28.244 133.41 28.244C133.074 28.244 132.782 28.188 132.534 28.076C132.286 27.964 132.082 27.816 131.922 27.632C131.762 27.44 131.646 27.224 131.574 26.984C131.502 26.736 131.47 26.476 131.478 26.204H136.122C136.138 25.828 136.102 25.432 136.014 25.016C135.934 24.6 135.782 24.216 135.558 23.864C135.342 23.512 135.05 23.224 134.682 23C134.322 22.768 133.866 22.652 133.314 22.652C132.89 22.652 132.498 22.732 132.138 22.892C131.786 23.052 131.478 23.276 131.214 23.564C130.958 23.852 130.758 24.192 130.614 24.584C130.47 24.976 130.398 25.408 130.398 25.88C130.414 26.352 130.482 26.788 130.602 27.188C130.73 27.588 130.918 27.932 131.166 28.22C131.414 28.508 131.718 28.732 132.078 28.892C132.446 29.052 132.878 29.132 133.374 29.132C134.078 29.132 134.662 28.956 135.126 28.604C135.59 28.252 135.89 27.728 136.026 27.032Z" fill="#2E2E2E"/>
</svg>
